<?xml version="1.0" encoding="utf-8"?>
<!-- Generator: Adobe Illustrator 24.3.0, SVG Export Plug-In . SVG Version: 6.00 Build 0)  -->
<svg version="1.1" id="Слой_1" xmlns="http://www.w3.org/2000/svg" xmlns:xlink="http://www.w3.org/1999/xlink" x="0px" y="0px"
	 viewBox="0 0 279.82 282.44" style="enable-background:new 0 0 279.82 282.44;" xml:space="preserve">
<style type="text/css">
	.st0{fill:#29235C;}
</style>
<g>
	<path class="st0" d="M250.55,72.67H29.27C13.1,72.67,0,59.56,0,43.4l0-14.13C0,13.1,13.1,0,29.27,0l221.29,0
		c16.16,0,29.27,13.1,29.27,29.27V43.4C279.82,59.56,266.72,72.67,250.55,72.67z"/>
	<path class="st0" d="M33.44,192.79v-66.97c0-14.94,12.11-27.06,27.06-27.06h0c14.94,0,27.06,12.11,27.06,27.06v66.97
		c0,14.94-12.11,27.06-27.06,27.06h0C45.55,219.85,33.44,207.73,33.44,192.79z"/>
	<path class="st0" d="M112.85,221.37v-95.55c0-14.94,12.11-27.06,27.06-27.06h0c14.94,0,27.06,12.11,27.06,27.06v95.55
		c0,14.94-12.11,27.06-27.06,27.06h0C124.97,248.42,112.85,236.31,112.85,221.37z"/>
	<path class="st0" d="M193.15,255.38V125.81c0-14.94,12.11-27.06,27.06-27.06h0c14.94,0,27.06,12.11,27.06,27.06v129.57
		c0,14.94-12.11,27.06-27.06,27.06h0C205.26,282.44,193.15,270.32,193.15,255.38z"/>
</g>
</svg>
